<svg width="21" height="20" viewBox="0 0 21 20" fill="none" xmlns="http://www.w3.org/2000/svg">
<path fill-rule="evenodd" clip-rule="evenodd" d="M11.1577 2.00425C11.1653 2.01055 11.173 2.01684 11.1787 2.02525L14.4354 5.30108C14.7437 5.61775 14.7437 6.11692 14.4354 6.43358C14.1187 6.75025 13.6195 6.75025 13.3112 6.43358L11.3337 4.44692V10.8333V13.3336C11.3337 13.7919 10.9579 14.1669 10.5004 14.1669C10.042 14.1669 9.66704 13.7919 9.66704 13.3336V12.5194C9.66704 12.5161 9.666 12.513 9.66496 12.5098C9.66392 12.5067 9.66288 12.5036 9.66288 12.5002V10.8333V4.44192L7.68954 6.43358C7.38037 6.75025 6.88121 6.75025 6.56454 6.43358C6.25621 6.11692 6.25621 5.61775 6.56454 5.30108L9.82121 2.02525C9.82662 2.01668 9.83448 2.0103 9.8424 2.00388C9.84911 1.99844 9.85586 1.99296 9.86121 1.98608C9.90121 1.93775 9.94371 1.89608 9.99288 1.85775C10.0287 1.82858 10.0645 1.80275 10.1062 1.78025C10.1587 1.75108 10.2137 1.73025 10.2729 1.71358C10.2843 1.71016 10.295 1.70483 10.3057 1.6995C10.3185 1.69313 10.3313 1.68676 10.3454 1.68358L10.3795 1.67525C10.3962 1.67525 10.4129 1.67525 10.4295 1.66692H10.5004C10.5012 1.66692 10.5018 1.66712 10.5025 1.66733C10.5031 1.66754 10.5037 1.66775 10.5045 1.66775L10.5712 1.67525H10.6212C10.6379 1.68358 10.6454 1.68358 10.6545 1.68358C10.6686 1.68676 10.6814 1.69313 10.6942 1.6995C10.7049 1.70483 10.7156 1.71016 10.727 1.71358C10.7862 1.73025 10.8412 1.75108 10.8937 1.78025C10.9354 1.80275 10.9712 1.82858 11.007 1.85692C11.057 1.89608 11.0987 1.93775 11.1387 1.98608C11.1442 1.99312 11.1509 1.99868 11.1577 2.00425ZM18 10C17.5397 10 17.1666 10.3731 17.1666 10.8333V11.6667V16.6667H3.83329V11.6667V10.8333C3.83329 10.3731 3.4602 10 2.99996 10C2.53972 10 2.16663 10.3731 2.16663 10.8333V11.6667V16.3333C2.16663 17.4379 3.06206 18.3333 4.16663 18.3333H16.8333C17.9379 18.3333 18.8333 17.4379 18.8333 16.3333V11.6667V10.8333C18.8333 10.3731 18.4602 10 18 10Z" fill="#007480"/>
</svg>
