<svg width="80" height="80" viewBox="0 0 80 80" fill="none" xmlns="http://www.w3.org/2000/svg">
<path fill-rule="evenodd" clip-rule="evenodd" d="M40.0105 4C45.7426 4 51.1084 5.33489 55.8983 7.66441H55.8198L40.0628 18.2912L24.175 7.66441C28.9649 5.33489 34.3568 4 40.0105 4ZM61.4211 10.9885C62.756 11.9832 64.0123 13.0563 65.2163 14.1818L40.089 31.1428L14.8831 14.1818C16.0086 13.0563 17.265 11.9832 18.5999 10.9885L40.089 25.4106L61.4472 10.9885H61.4211ZM69.1425 18.71C70.0586 19.9663 70.9485 21.3012 71.7337 22.767L40.089 43.9944L8.36571 22.7146C9.17712 21.3274 10.0409 19.9925 10.957 18.6576L40.089 38.2098L69.1425 18.7361V18.71ZM74.1418 28.1589C74.7438 29.7555 75.2149 31.4307 75.529 33.132L40.089 56.8721L4.57043 33.0535C4.9107 31.4045 5.35566 29.7294 5.90532 28.1851L40.089 51.0614L74.1418 28.1066V28.1589Z" fill="#FDD400"/>
<path fill-rule="evenodd" clip-rule="evenodd" d="M77.0472 39.7014V40.0417C77.0472 50.2759 72.8593 59.5154 66.211 66.1637C59.4842 72.8905 50.2447 76.9998 40.0628 76.9998H39.9843C29.8025 76.9998 20.563 72.8905 13.8362 66.1637C7.18789 59.5154 3 50.2759 3 40.094V40.0155V39.6229V37.9478L4.33489 38.89L40.0367 62.9704L75.6076 38.9686L76.9425 38.0263L77.021 39.7014H77.0472Z" fill="#0092A1"/>
</svg>
