<svg width="33" height="32" viewBox="0 0 33 32" fill="none" xmlns="http://www.w3.org/2000/svg">
<path d="M3.16669 14.3333C3.16669 17.8696 4.57144 21.2609 7.07193 23.7614C9.57241 26.2619 12.9638 27.6667 16.5 27.6667C20.0362 27.6667 23.4276 26.2619 25.9281 23.7614C28.4286 21.2609 29.8334 17.8696 29.8334 14.3333C29.8334 10.7971 28.4286 7.40573 25.9281 4.90524C23.4276 2.40476 20.0362 1 16.5 1C12.9638 1 9.57241 2.40476 7.07193 4.90524C4.57144 7.40573 3.16669 10.7971 3.16669 14.3333V14.3333Z" fill="#FFE500"/>
<path d="M16.5 1C13.8629 1 11.2851 1.78199 9.09242 3.24707C6.89977 4.71216 5.1908 6.79454 4.18163 9.23089C3.17246 11.6672 2.90842 14.3481 3.42289 16.9345C3.93736 19.5209 5.20724 21.8967 7.07194 23.7614C8.93664 25.6261 11.3124 26.896 13.8988 27.4105C16.4852 27.9249 19.1661 27.6609 21.6025 26.6517C24.0388 25.6426 26.1212 23.9336 27.5863 21.7409C29.0514 19.5483 29.8334 16.9704 29.8334 14.3333C29.8334 10.7971 28.4286 7.40573 25.9281 4.90524C23.4276 2.40476 20.0362 1 16.5 1V1ZM16.5 25.6667C14.0937 25.6667 11.7414 24.9531 9.74059 23.6162C7.73979 22.2793 6.18036 20.3791 5.25949 18.156C4.33863 15.9328 4.09769 13.4865 4.56714 11.1264C5.03659 8.7663 6.19536 6.59841 7.89689 4.89687C9.59843 3.19533 11.7663 2.03657 14.1264 1.56711C16.4865 1.09766 18.9328 1.3386 21.156 2.25947C23.3792 3.18033 25.2793 4.73976 26.6162 6.74056C27.9531 8.74136 28.6667 11.0937 28.6667 13.5C28.6667 16.7268 27.3849 19.8214 25.1032 22.1031C22.8215 24.3848 19.7268 25.6667 16.5 25.6667V25.6667Z" fill="#EBCB00"/>
<path d="M12.5 3.66667C12.5 3.93189 12.9214 4.18624 13.6716 4.37378C14.4217 4.56132 15.4391 4.66667 16.5 4.66667C17.5609 4.66667 18.5783 4.56132 19.3284 4.37378C20.0786 4.18624 20.5 3.93189 20.5 3.66667C20.5 3.40146 20.0786 3.1471 19.3284 2.95956C18.5783 2.77203 17.5609 2.66667 16.5 2.66667C15.4391 2.66667 14.4217 2.77203 13.6716 2.95956C12.9214 3.1471 12.5 3.40146 12.5 3.66667Z" fill="#FFF48C"/>
<path opacity="0.15" d="M5.83337 30.3333C5.83337 30.5985 6.95718 30.8529 8.95757 31.0404C10.958 31.228 13.6711 31.3333 16.5 31.3333C19.329 31.3333 22.0421 31.228 24.0425 31.0404C26.0429 30.8529 27.1667 30.5985 27.1667 30.3333C27.1667 30.0681 26.0429 29.8138 24.0425 29.6262C22.0421 29.4387 19.329 29.3333 16.5 29.3333C13.6711 29.3333 10.958 29.4387 8.95757 29.6262C6.95718 29.8138 5.83337 30.0681 5.83337 30.3333V30.3333Z" fill="#45413C"/>
<path d="M3.16669 14.3333C3.16669 17.8696 4.57144 21.2609 7.07193 23.7614C9.57241 26.2619 12.9638 27.6667 16.5 27.6667C20.0362 27.6667 23.4276 26.2619 25.9281 23.7614C28.4286 21.2609 29.8334 17.8696 29.8334 14.3333C29.8334 10.7971 28.4286 7.40573 25.9281 4.90524C23.4276 2.40476 20.0362 1 16.5 1C12.9638 1 9.57241 2.40476 7.07193 4.90524C4.57144 7.40573 3.16669 10.7971 3.16669 14.3333V14.3333Z" stroke="#45413C" stroke-width="0.5" stroke-linecap="round" stroke-linejoin="round"/>
<path d="M26.1667 17.6667C26.1667 18.22 25.42 18.6667 24.5 18.6667C23.58 18.6667 22.8334 18.22 22.8334 17.6667C22.8334 17.1133 23.58 16.6667 24.5 16.6667C25.42 16.6667 26.1667 17.1133 26.1667 17.6667Z" fill="#FFAA54"/>
<path d="M6.83337 17.6667C6.83337 18.22 7.58004 18.6667 8.50004 18.6667C9.42004 18.6667 10.1667 18.22 10.1667 17.6667C10.1667 17.1133 9.42004 16.6667 8.50004 16.6667C7.58004 16.6667 6.83337 17.1133 6.83337 17.6667Z" fill="#FFAA54"/>
<path d="M12.46 19.6667C12.37 19.6672 12.2811 19.6871 12.1994 19.725C12.1177 19.763 12.0452 19.8181 11.9867 19.8867C11.9291 19.9567 11.8863 20.0378 11.8611 20.1249C11.8359 20.212 11.8287 20.3034 11.84 20.3933C12.0185 21.5025 12.5862 22.5119 13.4413 23.2405C14.2965 23.9691 15.3832 24.3693 16.5067 24.3693C17.6302 24.3693 18.7169 23.9691 19.5721 23.2405C20.4272 22.5119 20.9949 21.5025 21.1734 20.3933C21.1847 20.3034 21.1775 20.212 21.1523 20.1249C21.1271 20.0378 21.0843 19.9567 21.0267 19.8867C20.9683 19.8181 20.8957 19.763 20.814 19.725C20.7323 19.6871 20.6434 19.6672 20.5534 19.6667H12.46Z" fill="#FFB0CA" stroke="#45413C" stroke-width="0.5" stroke-linecap="round" stroke-linejoin="round"/>
<path d="M20.2133 22.56C19.0703 21.9571 17.792 21.6565 16.5 21.6867C15.208 21.6565 13.9298 21.9571 12.7867 22.56C13.2341 23.114 13.7998 23.5608 14.4423 23.8677C15.0849 24.1747 15.7879 24.334 16.5 24.334C17.2121 24.334 17.9152 24.1747 18.5577 23.8677C19.2002 23.5608 19.7659 23.114 20.2133 22.56Z" fill="#FF87AF" stroke="#45413C" stroke-width="0.5" stroke-linecap="round" stroke-linejoin="round"/>
<path d="M7.16669 15.1667C7.16669 14.8572 7.2896 14.5605 7.5084 14.3417C7.72719 14.1229 8.02393 14 8.33335 14C8.64277 14 8.93952 14.1229 9.15831 14.3417C9.3771 14.5605 9.50002 14.8572 9.50002 15.1667" stroke="#45413C" stroke-width="0.5" stroke-linecap="round" stroke-linejoin="round"/>
<path d="M23.5 15.1667C23.5 14.8572 23.6229 14.5605 23.8417 14.3417C24.0605 14.1229 24.3572 14 24.6667 14C24.9761 14 25.2728 14.1229 25.4916 14.3417C25.7104 14.5605 25.8333 14.8572 25.8333 15.1667" stroke="#45413C" stroke-width="0.5" stroke-linecap="round" stroke-linejoin="round"/>
</svg>
